<svg width="202" height="156" viewBox="0 0 202 156" fill="none" xmlns="http://www.w3.org/2000/svg">
<path d="M188.505 2.1687C193.022 5.01095 197.154 10.0485 199.4 15.3259C200.877 19.3022 201.157 23.4892 201.216 30.1696C200.988 60.1549 201.691 104.308 200.942 132.999C200.057 145.35 191.076 152.764 180.239 154.131C177.33 154.596 174.193 154.807 170.978 154.894C124.991 154.676 78.8668 156.283 32.9381 154.967C23.0716 154.698 11.2982 153.826 4.9461 144.87C0.0714164 137.775 0.474928 133.341 0.351272 121.885C0.383813 103.959 0.325239 78.5387 0.351272 59.0791C0.396829 48.3643 0.188565 35.7596 0.500961 25.6554C0.722242 17.2159 4.13257 11.5096 9.32615 5.74514C12.5542 1.87794 16.5373 0.191488 21.1451 0.235103C33.4848 0.118796 55.0206 0.249641 81.6719 0.206026C101.203 0.206026 123.396 0.206026 142.257 0.206026C159.803 0.264179 172.098 0.111527 180.981 0.256911C183.637 0.365948 186.064 0.809368 188.446 2.1469L188.498 2.17597L188.505 2.1687ZM70.2304 34.3275H25.3755C25.3104 34.7273 25.4731 36.0431 25.3755 36.1448C25.2779 36.2466 24.1064 36.0721 23.7484 36.1448V52.4714C26.3517 51.8172 24.972 53.8235 25.369 54.2887C25.5122 54.4559 28.8119 54.1215 28.9485 54.2887C29.0462 54.405 28.7858 55.6117 29.0852 56.1278C29.4367 56.7311 30.8945 56.3604 30.8945 56.4694V102.011C30.8945 102.047 30.4389 102.556 30.4064 102.556H25.369C25.2714 103.203 25.4992 106.409 25.369 106.547C24.9199 107.034 23.2408 105.137 23.7354 108.88C23.794 109.345 25.369 108.975 25.369 109.091V124.334H53.9728V104.373C51.3695 105.028 52.7492 103.029 52.3522 102.556C52.17 102.345 48.0047 102.636 47.1651 102.178C47.2237 101.131 46.8723 100.15 46.8137 99.125C46.1694 87.6688 46.1759 71.0005 46.8137 59.5443C46.8397 59.0718 47.061 56.5858 47.1521 56.4767C47.2628 56.3459 50.2761 56.3531 50.3867 56.484C50.4974 56.6148 50.237 57.7706 50.6991 58.1341C51.1287 58.4685 52.3457 58.1995 52.3457 58.2867V66.2683C52.7037 66.3337 53.8817 66.1593 53.9728 66.2683C54.3242 66.6681 54.0964 72.229 54.2917 72.4398C54.4153 72.5707 55.7951 72.3017 55.9187 72.4398C56.0684 72.5998 55.769 76.278 55.9187 76.4379C56.0424 76.5687 57.4221 76.2998 57.5458 76.4379C57.7345 76.6414 57.4612 81.7807 57.8712 82.2459C57.9753 82.3695 59.4918 82.1587 59.4918 82.2459V88.4175C59.4918 88.5047 60.8585 88.2503 61.0863 88.4538C61.5614 88.89 61.3141 92.2701 61.4442 92.4083C61.5419 92.5173 62.7134 92.3356 63.0713 92.4083V98.2163C63.4293 98.2817 64.6073 98.1073 64.6984 98.2163C65.0498 98.6161 64.822 104.177 65.0173 104.388C65.1409 104.519 66.5207 104.25 66.6443 104.388C66.794 104.548 66.4947 108.226 66.6443 108.386C66.768 108.517 68.1477 108.248 68.2714 108.386C68.4732 108.597 68.2454 114.158 68.5903 114.557C68.6814 114.666 69.8594 114.485 70.2174 114.557V120.184C70.2174 120.751 71.6622 120.511 71.8054 120.765C72.0202 121.151 72.0592 123.658 72.1698 124.349C73.5236 124.029 82.5245 124.785 82.8954 124.349C83.0126 124.211 82.7718 122.663 82.8954 122.532C83.0191 122.401 84.4119 122.67 84.5225 122.532C84.6462 122.386 84.6787 118.73 84.8479 118.541C84.9781 118.388 86.3448 118.679 86.475 118.541C86.6182 118.381 86.3253 114.703 86.475 114.543C86.5986 114.412 87.9784 114.681 88.102 114.543C88.3624 114.267 88.1671 106.83 88.421 106.554C88.5446 106.423 89.9244 106.692 90.048 106.554C90.1977 106.394 89.8983 102.716 90.048 102.556C90.1717 102.425 91.5514 102.694 91.6751 102.556C91.8768 102.338 91.3757 99.2195 91.8117 98.5362C92.2022 97.9256 93.6211 98.2963 93.6211 98.1945V90.5764C93.979 90.5037 95.157 90.6855 95.2481 90.5764C95.3848 90.4165 95.4303 86.3748 95.567 86.2149C95.6581 86.1059 96.8361 86.2876 97.1941 86.2149V80.4068C97.552 80.3414 98.73 80.5159 98.8211 80.4068C99.1726 80.007 98.9448 74.4461 99.14 74.2353C99.2442 74.1263 100.409 74.308 100.767 74.2353V68.4272C101.125 68.3546 102.303 68.5363 102.394 68.4272C102.518 68.2819 102.55 64.6255 102.72 64.4365C102.85 64.2838 104.216 64.5746 104.347 64.4365C104.477 64.2983 104.249 61.0854 104.347 60.4384C107.295 60.0677 105.85 61.0054 106.338 61.8341C106.546 62.1903 107.92 62.1612 107.92 62.2484V100.353C105.857 100.106 106.267 100.448 106.293 102.534H100.767C100.702 102.934 100.865 104.25 100.767 104.352C100.669 104.453 99.498 104.279 99.14 104.352V124.313H142.042V104.352C139.439 105.006 140.819 102.999 140.422 102.534C140.233 102.309 135.788 102.629 134.896 102.171V88.3811H160.253C160.318 87.9813 160.155 86.6801 160.253 86.5638C160.5 86.2731 167.158 86.4911 167.405 86.2076C167.522 86.0695 167.281 84.5285 167.405 84.3904C167.542 84.2304 170.523 84.5575 170.659 84.3904C170.776 84.2522 170.412 82.7621 170.959 82.3695C171.421 82.0351 172.508 82.3186 172.605 82.2169C172.722 82.086 172.482 80.5304 172.605 80.3996C172.729 80.2687 174.441 80.5377 174.558 80.3996C174.675 80.2615 174.441 78.7131 174.558 78.5823C174.675 78.4514 176.068 78.7204 176.185 78.5823C176.302 78.4442 176.061 76.5324 176.185 76.4015C176.308 76.2707 177.701 76.5396 177.812 76.4015C177.935 76.2561 177.968 72.5998 178.137 72.4108C178.267 72.2581 179.634 72.5489 179.764 72.4108C179.907 72.2508 179.615 68.5726 179.764 68.4127C179.862 68.3037 181.033 68.4854 181.391 68.4127V54.2596C181.033 54.1869 179.862 54.3687 179.764 54.2596C179.615 54.0997 179.914 50.4215 179.764 50.2616C179.641 50.1307 178.254 50.3997 178.137 50.2616C178.014 50.1162 177.981 46.4598 177.812 46.2708C177.682 46.1181 176.315 46.4089 176.185 46.2708C176.055 46.1327 176.282 42.9197 176.185 42.2727C175.606 42.171 172.735 42.4181 172.605 42.2727C172.475 42.1274 172.735 40.2301 172.605 40.092C172.475 39.9539 170.77 40.2301 170.653 40.092C170.536 39.9539 170.77 38.4055 170.653 38.2747C170.536 38.1439 169.143 38.4055 169.026 38.2747C168.909 38.1439 169.149 36.581 169.026 36.4574C168.668 36.0721 163.689 36.3193 163.494 36.1012C163.396 35.9849 163.559 34.691 163.494 34.2839H97.1876C97.7733 37.2061 95.912 35.5124 95.3783 36.4356C95.0789 36.9517 95.3327 38.1657 95.2416 38.2747C95.1245 38.4055 93.7382 38.1366 93.6145 38.2747C93.4648 38.4346 93.7642 42.1128 93.6145 42.2727C93.4909 42.4036 92.1111 42.1346 91.9875 42.2727C91.7857 42.4836 92.0135 48.0445 91.6686 48.4443C91.5514 48.5751 90.1652 48.3062 90.0415 48.4443C89.8918 48.6042 90.1912 52.2824 90.0415 52.4423C89.9179 52.5804 88.5511 52.2969 88.4145 52.4423C88.2452 52.6313 88.2127 56.2877 88.089 56.4331C87.9979 56.5421 86.8199 56.3604 86.462 56.4331V62.2412C83.8457 61.5869 85.3621 63.6659 84.5355 64.262C83.5658 64.9598 82.5115 63.317 82.8889 66.232C82.5245 66.1665 81.366 66.341 81.2684 66.232C80.8584 65.7595 81.1317 60.6274 80.943 60.4312C80.8193 60.3003 79.4331 60.5693 79.3159 60.4312C79.1922 60.2858 79.1857 56.7021 78.971 56.4622C78.8018 56.2732 77.6888 56.7384 77.409 55.8443C77.1747 55.1028 77.5327 52.2606 77.3699 52.0789C77.2463 51.948 75.8665 52.217 75.7429 52.0789C75.5541 51.8753 75.8275 46.736 75.4175 46.2708C75.2873 46.1181 73.9206 46.4089 73.7904 46.2708C73.6472 46.1109 73.9401 42.4327 73.7904 42.2727C73.6667 42.1419 72.287 42.4109 72.1633 42.2727C72.0136 42.1128 72.313 38.4346 72.1633 38.2747C72.0397 38.1366 70.6729 38.4201 70.5363 38.2747C70.3996 38.1293 70.2369 34.8509 70.2109 34.2839L70.2304 34.3275Z" fill="#FFF6E2"/>
<path d="M145.086 50.685C145.21 50.8231 144.963 52.7276 145.086 52.8657C145.21 53.0039 146.922 52.7276 147.039 52.8657C147.156 53.0039 146.922 54.5522 147.039 54.683C147.156 54.8139 148.549 54.5449 148.666 54.683C149.115 55.1773 147.468 57.6125 150.612 56.8638V64.6636C150.612 64.7654 150.345 66.5827 150.286 66.6554C150.163 66.8007 148.783 66.5245 148.659 66.6554C148.536 66.7862 148.783 68.7053 148.659 68.8361C148.536 68.967 147.15 68.7053 147.032 68.8361C146.915 68.967 147.156 70.5226 147.032 70.6534C146.902 70.7915 143.622 70.8351 143.459 71.0169C143.355 71.1259 143.524 72.4634 143.459 72.4634H132.408C132.343 72.0636 132.506 70.7479 132.408 70.6461C132.311 70.5444 131.139 70.7188 130.781 70.6461V52.5023C131.139 52.4296 132.317 52.6113 132.408 52.5023C132.499 52.3932 132.343 51.0848 132.408 50.685C133.983 51.0702 144.637 50.1834 145.086 50.685Z" fill="#FFF6E2"/>
</svg>
