<svg width="150" height="150" viewBox="0 0 150 150" fill="none" xmlns="http://www.w3.org/2000/svg">
<path d="M150 75C150 116.421 116.421 150 75 150C33.5786 150 0 116.421 0 75C0 33.5786 33.5786 0 75 0C116.421 0 150 33.5786 150 75Z" fill="#60C5BB"/>
<path fill-rule="evenodd" clip-rule="evenodd" d="M63.4541 125.899C45.4863 122.089 31.1945 109.148 23.5 98.5423L28.6177 95.1493C35.8015 105.051 48.9136 116.718 64.8025 120.086C80.3041 123.372 99.3273 118.933 119.114 95L124 98.6916C103.096 123.976 81.8093 129.79 63.4541 125.899Z" fill="black"/>
<path d="M56.5 52.75C56.5 57.0302 52.6944 60.5 48 60.5C43.3056 60.5 39.5 57.0302 39.5 52.75C39.5 48.4698 43.3056 45 48 45C52.6944 45 56.5 48.4698 56.5 52.75Z" fill="black"/>
<path d="M110 52.75C110 57.0302 106.306 60.5 101.75 60.5C97.1937 60.5 93.5 57.0302 93.5 52.75C93.5 48.4698 97.1937 45 101.75 45C106.306 45 110 48.4698 110 52.75Z" fill="black"/>
<path fill-rule="evenodd" clip-rule="evenodd" d="M114.057 87L134 102.542L129.943 107L110 91.4581L114.057 87Z" fill="black"/>
<path fill-rule="evenodd" clip-rule="evenodd" d="M34.4433 88L14.5 103.542L18.5567 108L38.5 92.4581L34.4433 88Z" fill="black"/>
</svg>
