<?xml version="1.0" encoding="UTF-8"?>
<svg id="Layer_1" data-name="Layer 1" xmlns="http://www.w3.org/2000/svg" viewBox="0 0 129.06 35.52">
  <defs>
    <style>
      .cls-1 {
        fill: #231f20;
      }

      .cls-2 {
        fill: #5abbae;
      }
    </style>
  </defs>
  <g>
    <g>
      <path class="cls-1" d="M44.92,8.77v-.57h2.01v.79h-.14l-1.86-.21ZM47.06,17l1.86.21v.57h-4.01v-.57l1.86-.21h.29ZM46.28,12.63c0-1.47,0-2.96-.04-4.44h1.37c-.04,1.45-.04,2.94-.04,4.44v.87c0,1.46,0,2.81.04,4.28h-1.37c.04-1.45.04-2.94.04-4.44v-.72ZM48.34,13.99h-1.42v-.66h1.63c1.76,0,2.45-.93,2.45-2.29s-.77-2.19-2.51-2.19h-1.58v-.66h1.85c2.38,0,3.59,1.17,3.59,2.85s-1.1,2.95-4.02,2.95Z"/>
      <path class="cls-1" d="M51.91,17.22l1.43-.21h.29l1.58.21v.57h-3.29v-.57ZM56.18,8.12h.86l3.29,9.67h-1.33l-2.88-8.58h.33l-2.92,8.58h-.67l3.32-9.67ZM54.5,13.99h3.87l.23.66h-4.33l.23-.66ZM55.2,6.12c0-.83.69-1.33,1.37-1.33s1.37.47,1.37,1.33-.69,1.32-1.37,1.32-1.37-.47-1.37-1.32ZM57.32,6.12c0-.42-.26-.8-.74-.8s-.74.39-.74.8.26.82.74.82.74-.42.74-.82ZM57.32,17.22l1.8-.21h.29l1.78.21v.57h-3.87v-.57Z"/>
      <path class="cls-1" d="M61.84,8.77v-.57h2.01v.79h-.14l-1.86-.21ZM63.99,17l1.86.21v.57h-4.01v-.57l1.86-.21h.29ZM63.2,12.63c0-1.47,0-2.96-.04-4.44h1.37c-.04,1.49-.04,2.89-.04,4.58v.43c0,1.62,0,3.11.04,4.58h-1.37c.04-1.45.04-2.94.04-4.44v-.72ZM63.84,12.71h1.79c1.55,0,2.29-.83,2.29-1.99s-.64-1.86-2.13-1.86h-1.95v-.66h1.96c2.19,0,3.48.93,3.48,2.52,0,1.22-.96,2.32-2.84,2.48l.04-.11c1.03.1,1.66.57,2.05,1.86l.7,2.38-.44-.27,1.48.17v.57c-.26.09-.6.14-1.03.14-.89,0-1.27-.23-1.45-.89l-.59-2.33c-.29-1.16-.82-1.36-2-1.36h-1.36v-.64Z"/>
      <path class="cls-1" d="M79.64,12.99c0,3.14-2.15,5.01-4.37,5.01s-4.38-1.75-4.38-5.01,2.18-5.01,4.38-5.01,4.37,1.75,4.37,5.01ZM71.55,18.08l-.6-.47,7.91-9.7.6.47-7.9,9.7ZM75.28,17.29c2.02,0,2.86-2.15,2.86-4.3s-.85-4.3-2.86-4.3-2.88,2.15-2.88,4.3.86,4.3,2.88,4.3Z"/>
      <path class="cls-1" d="M80.62,8.77v-.57h2.01v.79h-.14l-1.86-.21ZM82.77,17l1.86.21v.57h-4.01v-.57l1.86-.21h.29ZM81.98,12.63c0-1.47,0-2.96-.04-4.44h1.37c-.04,1.49-.04,2.89-.04,4.58v.43c0,1.62,0,3.11.04,4.58h-1.37c.04-1.45.04-2.94.04-4.44v-.72ZM82.63,12.71h1.79c1.55,0,2.29-.83,2.29-1.99s-.64-1.86-2.13-1.86h-1.95v-.66h1.96c2.19,0,3.48.93,3.48,2.52,0,1.22-.96,2.32-2.84,2.48l.04-.11c1.03.1,1.66.57,2.05,1.86l.7,2.38-.44-.27,1.48.17v.57c-.26.09-.6.14-1.03.14-.89,0-1.27-.23-1.45-.89l-.59-2.33c-.29-1.16-.82-1.36-2.01-1.36h-1.36v-.64Z"/>
      <path class="cls-1" d="M89.92,8.77v-.57h2.01v.79h-.14l-1.86-.21ZM91.93,17v.79h-2.01v-.57l1.86-.21h.14ZM91.28,12.63c0-1.47,0-2.96-.04-4.44h1.37c-.04,1.45-.04,2.94-.04,4.44v.54c0,1.65,0,3.14.04,4.61h-1.37c.04-1.45.04-2.94.04-4.44v-.72ZM95.9,8.19l.64.72h-4.61v-.72h5.11l.1,2.55h-.8l-.44-2.55ZM95.17,13.22h-3.24v-.66h3.24v.66ZM97.43,15.24l-.1,2.55h-5.4v-.72h4.9l-.64.72.44-2.55h.8ZM94.71,12.71l.22-1.52h.64v3.39h-.64l-.22-1.59v-.29Z"/>
      <path class="cls-1" d="M98.51,17.22l1.5-.21h.29l1.65.21v.57h-3.44v-.57ZM99.41,8.64l.89.34-1.72-.21v-.57h2.15l5.94,8.18v1.52h-.46l-6.8-9.25ZM99.72,8.19l.72.57v9.02h-.72v-9.6ZM104.45,8.19h3.44v.57l-1.43.21h-.29l-1.72-.21v-.57ZM105.95,8.19h.72v9.7l-.72-.72v-8.98Z"/>
      <path class="cls-1" d="M108.97,8.77v-.57h2.01v.79h-.14l-1.86-.21ZM110.97,17v.79h-2.01v-.57l1.86-.21h.14ZM110.33,12.63c0-1.47,0-2.96-.04-4.44h1.37c-.04,1.45-.04,2.94-.04,4.44v.54c0,1.65,0,3.14.04,4.61h-1.37c.04-1.45.04-2.94.04-4.61v-.54ZM110.97,17.13h1.85c2.25,0,3.48-1.52,3.48-4.12s-1.23-4.15-3.35-4.15h-1.98v-.66h2.22c2.72,0,4.61,1.69,4.61,4.81s-2.12,4.78-4.9,4.78h-1.93v-.66Z"/>
      <path class="cls-1" d="M118.71,8.77v-.57h2.01v.79h-.14l-1.86-.21ZM120.71,17v.79h-2.01v-.57l1.86-.21h.14ZM120.07,12.63c0-1.47,0-2.96-.04-4.44h1.37c-.04,1.45-.04,2.94-.04,4.44v.54c0,1.65,0,3.14.04,4.61h-1.37c.04-1.45.04-2.94.04-4.44v-.72ZM124.68,8.19l.64.72h-4.61v-.72h5.11l.1,2.55h-.8l-.44-2.55ZM123.95,13.22h-3.24v-.66h3.24v.66ZM126.21,15.24l-.1,2.55h-5.4v-.72h4.9l-.64.72.44-2.55h.8ZM123.49,12.71l.22-1.52h.64v3.39h-.64l-.22-1.59v-.29Z"/>
    </g>
    <g>
      <path class="cls-1" d="M44.87,28.88l1.5-.22h.29l1.65.22v.57h-3.44v-.57ZM45.77,20.3l.89.34-1.72-.21v-.57h2.15l5.94,8.18v1.52h-.46l-6.8-9.25ZM46.09,19.86l.72.57v9.02h-.72v-9.6ZM50.81,19.86h3.44v.57l-1.43.21h-.29l-1.72-.21v-.57ZM52.32,19.86h.72v9.7l-.72-.72v-8.98Z"/>
      <path class="cls-1" d="M55.33,20.43v-.57h2.01v.79h-.14l-1.86-.21ZM57.33,28.67v.79h-2.01v-.57l1.86-.22h.14ZM56.69,24.3c0-1.48,0-2.96-.04-4.44h1.37c-.04,1.45-.04,2.94-.04,4.44v.54c0,1.65,0,3.14.04,4.61h-1.37c.04-1.45.04-2.94.04-4.44v-.72ZM61.3,19.86l.64.72h-4.61v-.72h5.11l.1,2.55h-.8l-.44-2.55ZM60.57,24.89h-3.24v-.66h3.24v.66ZM62.83,26.9l-.1,2.55h-5.4v-.72h4.9l-.64.72.44-2.55h.8ZM60.11,24.37l.22-1.52h.64v3.39h-.64l-.22-1.59v-.29Z"/>
      <path class="cls-1" d="M64.24,20.57l.64-.72-.46,2.55h-.8l.11-2.55h7.82l.11,2.55h-.8l-.46-2.55.64.72h-6.82ZM67.79,28.67l2.01.22v.57h-4.3v-.57l2.01-.22h.29ZM67,24.3c0-1.48,0-2.96-.04-4.44h1.37c-.04,1.45-.04,2.94-.04,4.44v.72c0,1.48,0,2.96.04,4.44h-1.37c.04-1.45.04-2.94.04-4.44v-.72Z"/>
      <path class="cls-1" d="M74.04,20.65l-1.86-.21v-.57h3.87v.64l-1.72.14h-.29ZM73.02,19.86h1.37l2.86,8.13h-.3l2.75-8.13h.77l-3.28,9.7h-.57l-3.61-9.7ZM79.61,20.65l-1.43-.14v-.64h3.31v.57l-1.59.21h-.29Z"/>
      <path class="cls-1" d="M79.56,28.88l1.58-.22h.29l1.43.22v.57h-3.29v-.57ZM85.59,19.86h.79l-5.2,9.6h-.82l5.23-9.6ZM83.05,25.23h3.64v.66h-4l.36-.66ZM84.11,19.86h2.58v.79h-1.09l-1.49-.21v-.57ZM84.79,28.88l1.76-.22h.14v.79h-1.9v-.57ZM86.05,25.83v-5.97h1.33c-.04,1.45-.04,2.94-.04,4.44v.54c0,1.65,0,3.14.04,4.61h-1.37c.03-1.13.04-2.31.04-3.62ZM86.69,19.86h5.11l.1,2.55h-.8l-.44-2.55.64.72h-4.61v-.72ZM86.69,24.23h3.25v.66h-3.25v-.66ZM86.69,28.74h4.9l-.64.72.44-2.55h.8l-.1,2.55h-5.4v-.72ZM89.48,24.66v-.29l.21-1.52h.64v3.39h-.64l-.21-1.59Z"/>
      <path class="cls-1" d="M93.34,20.43v-.57h2.01v.79h-.14l-1.86-.21ZM95.49,28.67l1.86.22v.57h-4.01v-.57l1.86-.22h.29ZM94.7,24.3c0-1.48,0-2.96-.04-4.44h1.37c-.04,1.49-.04,2.89-.04,4.58v.43c0,1.62,0,3.11.04,4.58h-1.37c.04-1.45.04-2.94.04-4.44v-.72ZM95.35,24.37h1.79c1.55,0,2.29-.83,2.29-1.99s-.64-1.86-2.13-1.86h-1.95v-.66h1.96c2.19,0,3.48.93,3.48,2.52,0,1.22-.96,2.32-2.84,2.48l.04-.11c1.03.1,1.66.57,2.05,1.86l.7,2.38-.44-.27,1.48.17v.57c-.26.09-.6.14-1.03.14-.89,0-1.27-.23-1.45-.89l-.59-2.33c-.29-1.16-.82-1.36-2-1.36h-1.36v-.64Z"/>
      <path class="cls-1" d="M102.64,20.43v-.57h4.01v.57l-1.86.21h-.29l-1.86-.21ZM104.79,28.67l1.86.22v.57h-4.01v-.57l1.86-.22h.29ZM104,24.3c0-1.48,0-2.96-.04-4.44h1.33c-.04,1.45-.04,2.94-.04,4.44v1.09c0,1.1,0,2.59.04,4.07h-1.33c.04-1.45.04-2.94.04-4.44v-.72ZM104.62,25.99l5.01-6.13h.86l-5.87,7.06v-.93ZM107.27,23.22l3.47,6.23h-1.35l-2.86-5.34.74-.89ZM107.8,28.88l1.72-.22h.22l1.72.22v.57h-3.65v-.57ZM107.95,20.43v-.57h3.29v.57l-1.58.21-.29.07-1.43-.29Z"/>
      <path class="cls-1" d="M112.17,20.43v-.57h2.01v.79h-.14l-1.86-.21ZM114.18,28.67v.79h-2.01v-.57l1.86-.22h.14ZM113.53,24.3c0-1.48,0-2.96-.04-4.44h1.37c-.04,1.45-.04,2.94-.04,4.44v.54c0,1.65,0,3.14.04,4.61h-1.37c.04-1.45.04-2.94.04-4.44v-.72ZM118.14,19.86l.64.72h-4.61v-.72h5.11l.1,2.55h-.8l-.44-2.55ZM117.41,24.89h-3.24v-.66h3.24v.66ZM119.67,26.9l-.1,2.55h-5.4v-.72h4.9l-.64.72.44-2.55h.8ZM116.95,24.37l.22-1.52h.64v3.39h-.64l-.22-1.59v-.29Z"/>
      <path class="cls-1" d="M121.08,20.57l.64-.72-.46,2.55h-.8l.11-2.55h7.82l.11,2.55h-.8l-.46-2.55.64.72h-6.82ZM124.63,28.67l2.01.22v.57h-4.3v-.57l2.01-.22h.29ZM123.85,24.3c0-1.48,0-2.96-.04-4.44h1.37c-.04,1.45-.04,2.94-.04,4.44v.72c0,1.48,0,2.96.04,4.44h-1.37c.04-1.45.04-2.94.04-4.44v-.72Z"/>
    </g>
  </g>
  <g>
    <path class="cls-2" d="M39.7,3.02c.92.57,1.77,1.59,2.23,2.65.3.8.36,1.65.37,2.99-.05,6.04.1,14.94-.06,20.72-.18,2.49-2.02,3.98-4.23,4.26-.59.09-1.24.14-1.89.15-9.41-.04-18.84.28-28.23.01-2.02-.05-4.43-.23-5.73-2.03-1-1.43-.91-2.32-.94-4.63,0-3.61,0-8.74,0-12.66,0-2.16-.03-4.7.03-6.74.05-1.7.74-2.85,1.8-4.01.66-.78,1.47-1.12,2.42-1.11,2.52-.02,6.93,0,12.38,0h12.39c3.59.01,6.1-.02,7.92.01.54.02,1.04.11,1.53.38h.01s0,0,0,0ZM15.51,9.51H6.34c-.01.08.02.35,0,.37-.02.02-.26-.01-.33,0v3.29c.53-.13.25.27.33.37.03.03.7-.03.73,0,.02.02-.03.27.03.37.07.12.37.05.37.07v9.18s-.09.11-.1.11h-1.03c-.02.13.03.78,0,.8-.09.1-.44-.28-.33.47.01.09.33.02.33.04v3.07h5.85v-4.02c-.53.13-.25-.27-.33-.37-.04-.04-.89.02-1.06-.08.01-.21-.06-.41-.07-.62-.13-2.31-.13-5.67,0-7.98,0-.1.05-.6.07-.62.02-.03.64-.02.66,0,.02.03-.03.26.06.33.09.07.34.01.34.03v1.61c.07.01.31-.02.33,0,.07.08.03,1.2.07,1.24.03.03.31-.03.33,0,.03.03-.03.77,0,.81.03.03.31-.03.33,0,.04.04-.02,1.08.07,1.17.02.02.33-.02.33,0v1.24s.28-.03.33,0c.1.09.05.77.07.8.02.02.26-.01.33,0v1.17c.07.01.31-.02.33,0,.07.08.03,1.2.07,1.24.03.03.31-.03.33,0,.03.03-.03.77,0,.81.03.03.31-.03.33,0,.04.04,0,1.16.07,1.24.02.02.26-.01.33,0v1.13c0,.11.3.07.32.12.04.08.05.58.07.72.28-.06,2.12.09,2.19,0,.02-.03-.03-.34,0-.37.03-.03.31.03.33,0,.03-.03.03-.77.07-.8.03-.03.31.03.33,0,.03-.03-.03-.77,0-.81.03-.03.31.03.33,0,.05-.06.01-1.55.07-1.61.03-.03.31.03.33,0,.03-.03-.03-.77,0-.81.03-.03.31.03.33,0,.04-.04-.06-.67.03-.81.08-.12.37-.05.37-.07v-1.54c.07-.01.31.02.33,0,.03-.03.04-.85.07-.88.02-.02.26.01.33,0v-1.17c.07-.01.31.02.33,0,.07-.08.03-1.2.07-1.24.02-.02.26.01.33,0v-1.17c.07-.01.31.02.33,0,.03-.03.03-.77.07-.8.03-.03.31.03.33,0,.03-.03-.02-.68,0-.81.6-.07.31.11.41.28.04.07.32.07.32.08v7.68c-.42-.05-.34.02-.33.44h-1.13c-.01.08.02.35,0,.37s-.26-.01-.33,0v4.02h8.77v-4.02c-.53.13-.25-.27-.33-.37-.04-.05-.95.02-1.13-.07v-2.78h5.19c.01-.08-.02-.34,0-.37.05-.06,1.41-.01,1.46-.07.02-.03-.03-.34,0-.37.03-.03.64.03.67,0,.02-.03-.05-.33.06-.41.09-.07.32-.01.34-.03.02-.03-.03-.34,0-.37.03-.03.38.03.4,0,.02-.03-.02-.34,0-.37.02-.03.31.03.33,0,.02-.03-.03-.41,0-.44.03-.03.31.03.33,0,.03-.03.03-.77.07-.8.03-.03.31.03.33,0,.03-.03-.03-.77,0-.81.02-.02.26.01.33,0v-2.85c-.07-.01-.31.02-.33,0-.03-.03.03-.77,0-.81-.03-.03-.31.03-.33,0-.03-.03-.03-.77-.07-.8-.03-.03-.31.03-.33,0-.03-.03.02-.68,0-.81-.12-.02-.71.03-.73,0s.03-.41,0-.44c-.03-.03-.38.03-.4,0-.02-.03.02-.34,0-.37-.02-.03-.31.03-.33,0-.02-.03.03-.34,0-.37-.07-.08-1.09-.03-1.13-.07-.02-.02.01-.28,0-.37h-13.56c.12.59-.26.25-.37.43-.06.1,0,.35-.03.37-.02.03-.31-.03-.33,0-.03.03.03.77,0,.81-.03.03-.31-.03-.33,0-.04.04,0,1.16-.07,1.24-.02.03-.31-.03-.33,0-.03.03.03.77,0,.81-.03.03-.3-.03-.33,0-.03.04-.04.78-.07.8-.02.02-.26-.01-.33,0v1.17c-.54-.13-.22.29-.39.41-.2.14-.41-.19-.34.4-.07-.01-.31.02-.33,0-.08-.1-.03-1.13-.07-1.17-.03-.03-.31.03-.33,0-.03-.03-.03-.75-.07-.8-.03-.04-.26.06-.32-.12-.05-.15.03-.72,0-.76-.03-.03-.31.03-.33,0-.04-.04.02-1.08-.07-1.17-.03-.03-.31.03-.33,0-.03-.03.03-.77,0-.81-.03-.03-.31.03-.33,0-.03-.03.03-.77,0-.81-.03-.03-.3.03-.33,0-.03-.03-.06-.69-.07-.8h0Z"/>
    <path class="cls-2" d="M30.82,12.8s-.03.41,0,.44c.03.03.38-.03.4,0,.02.03-.02.34,0,.37.02.03.31-.03.33,0,.09.1-.24.59.4.44v1.57s-.05.39-.07.4c-.03.03-.31-.03-.33,0-.03.03.03.41,0,.44-.03.03-.31-.03-.33,0-.02.03.03.34,0,.37-.03.03-.7.04-.73.07-.02.02.01.29,0,.29h-2.26c-.01-.08.02-.35,0-.37s-.26.01-.33,0v-3.66c.07-.01.31.02.33,0,.02-.02-.01-.29,0-.37.32.08,2.5-.1,2.59,0Z"/>
  </g>
</svg>