<svg width="150" height="150" viewBox="0 0 150 150" fill="none" xmlns="http://www.w3.org/2000/svg">
<circle cx="75" cy="75" r="75" fill="#60C5BB"/>
<path d="M104.564 35.2322C106.49 36.1447 109.268 36.49 110.955 37.4765C111.791 37.9636 112.438 38.8823 111.652 39.7948C110.513 40.2695 109.339 40.6456 108.172 40.9971C104.044 42.2302 99.8441 43.2722 95.6331 44.4745C91.981 45.5164 88.3787 46.6756 84.7266 47.6497C83.4705 47.9827 82.2643 48.3773 80.9916 48.7534C77.8043 49.6967 74.5949 50.5106 71.3855 51.4416C71.059 51.5341 70.5499 51.867 70.3175 51.9163C69.4321 52.1075 68.0156 51.3984 67.1468 51.1148C58.57 48.3033 49.9267 45.5411 41.4162 42.4891C40.8131 42.4706 40.2708 42.113 39.6621 42.1254C39.1309 42.1377 38.5886 42.4337 38.3119 42.9331C37.659 44.1107 38.1183 45.1897 37.9689 46.429C37.9301 46.7311 37.7531 46.7619 37.7143 46.9777C37.6424 47.3785 37.6645 49.2096 37.7143 49.6536C37.7475 49.9557 37.9191 50.19 37.9578 50.4921C38.0076 50.899 37.9191 51.3429 37.9855 51.756C38.1349 52.7487 38.8874 54.3209 39.6289 54.9128C40.6858 55.7575 42.462 56.0534 43.7015 56.4665C51.0223 58.9143 58.332 61.4545 65.7026 63.8961C66.5492 64.1735 67.4346 64.5435 68.2922 64.7962C70.074 65.3265 71.2527 64.525 72.9348 64.0502C82.1978 61.4422 91.3502 58.7848 100.597 56.0966C101.98 55.6958 103.402 55.2026 104.808 54.7895C105.671 54.5367 106.54 54.4134 107.392 54.1174C107.447 53.9325 107.48 53.7352 107.491 53.5379C107.691 50.3071 107.336 46.8174 107.486 43.562C107.668 43.1119 107.613 42.6864 107.995 42.3782C108.725 41.7924 110.098 42.3227 110.928 42.4152C111.293 42.4583 111.835 42.3412 112.15 42.4152C112.2 42.4275 112.953 42.9331 113.041 43.007C114.198 44.012 113.102 44.8999 112.604 45.7569C112.388 46.1207 112.217 46.6016 112.018 46.9469C111.509 47.8162 110.015 49.8817 109.898 50.7695C109.854 51.1271 109.849 53.1186 109.948 53.3714C110.048 53.6242 110.313 53.5194 110.49 53.6057C111.542 54.1236 112.892 55.7698 111.215 56.4789C109.716 57.1139 108.067 57.416 106.528 57.9031C106.169 58.0203 105.411 58.0819 105.117 58.458C104.996 58.6122 105.018 58.8156 104.918 58.9759C101.222 65.2155 97.2821 71.2393 93.7019 77.5898C93.5747 77.818 93.3312 78.5147 93.2758 78.5887C93.2482 78.6257 92.7004 79.1436 92.6506 79.1806C92.4735 79.3162 91.3945 79.7416 91.1953 79.7601C90.155 79.8403 88.3898 79.7601 87.3108 79.6985C86.68 79.6615 86.0049 79.5505 85.3242 79.5135C79.0438 79.1559 72.7246 78.712 66.4385 78.3051C60.5841 77.929 54.7297 77.7563 48.8698 77.3864C47.4422 77.2939 45.9979 77.1768 44.5648 77.1089C42.8272 77.0226 40.304 76.6157 38.6993 77.2261C34.4551 78.8538 36.259 84.7604 35.9381 88.5646C36.1539 90.0813 37.7807 91.9248 39.0534 92.3811C41.4383 93.2443 43.0873 92.8189 45.4722 92.9853C46.0865 93.0285 46.8667 93.2319 47.5418 93.2689C56.5613 93.7067 65.5366 94.2246 74.5561 94.7425C78.0367 94.7795 81.5338 95.2728 84.9978 95.4824C86.3313 95.5625 87.7036 95.5194 89.0372 95.5564C89.3526 95.4516 90.1992 93.7252 90.4372 93.3306C94.2885 86.9307 98.1564 80.6048 101.974 74.1494C104.16 70.4563 106.296 66.1527 108.664 62.589C108.996 62.0957 109.5 61.3189 110.098 61.3189C110.928 61.3189 112.704 61.7628 113.257 62.4657C113.766 63.1069 113.418 63.8344 113.058 64.4386C111.282 67.4166 109.461 70.3761 107.624 73.3356C107.43 74.0076 106.639 74.8708 106.473 75.4751C106.346 75.9313 106.944 76.2149 107.248 76.4061C108.438 77.1521 109.677 77.8241 110.872 78.5578C114.884 80.9994 118.984 83.4595 123.04 85.9504C123.3 86.1107 123.682 86.197 123.97 86.3943C124.656 86.8629 124.949 87.3007 124.8 88.2317C124.717 88.7434 123.677 89.36 123.262 89.5634C122.199 90.0813 121.607 89.9704 120.55 90.1368C118.215 90.5129 115.897 90.8829 113.589 91.2405C107.569 92.1715 101.576 93.1641 95.5335 94.1075C94.9027 94.7672 94.5485 95.6612 94.0671 96.4442C93.1596 97.9178 92.9272 98.744 91.1344 98.8056C89.6072 98.8611 87.1614 98.855 85.6563 98.7132C85.2413 98.6762 84.8318 98.4727 84.4168 98.4357C82.967 98.2939 81.2738 98.4357 79.7797 98.3432C76.0668 98.1213 72.0993 97.2211 68.4527 98.559C66.5326 99.2619 64.5295 101.611 64.4078 103.929C64.2639 106.574 64.2639 110.341 64.4078 112.986C64.4354 113.517 64.4797 114.281 64.7896 114.682C64.8449 114.756 65.365 115.243 65.4259 115.268C66.2061 115.619 68.2148 114.929 69.1001 114.793C69.7863 114.688 70.478 114.608 71.1641 114.503C76.7253 113.659 82.3528 112.808 87.9028 111.92C92.4237 111.192 96.939 110.483 101.471 109.774C103.596 109.441 105.748 109.102 107.873 108.782C110.706 108.35 113.894 107.992 116.66 107.308C116.871 107.259 117.313 107.382 117.446 107.148C117.673 106.753 117.623 105.884 117.955 105.711C118.464 105.446 118.591 105.853 118.957 106.026C120.473 106.765 121.923 107.641 123.328 108.627C123.566 108.794 123.904 108.886 124.153 109.096C125.209 109.99 124.988 111.026 123.893 111.673C123.057 112.166 122.747 112.086 121.884 112.203C117.95 112.74 113.977 113.585 110.015 114.213C106.783 114.725 103.568 115.083 100.342 115.619C91.8095 117.037 83.1939 118.425 74.6502 119.67C72.3427 120.009 69.5151 120.774 67.2132 120.379C64.9113 119.984 60.7667 117.006 58.5865 115.681C47.8406 109.139 37.0503 102.585 26.2932 95.9941C22.6135 93.7375 20.4444 92.4181 20.1677 87.128C19.9574 83.0834 20.0072 76.8808 22.4088 73.65C25.3968 69.6301 29.0378 69.7164 33.2931 69.069C35.0251 68.8039 36.7626 68.4709 38.5111 68.2366C38.9317 68.1812 39.3744 67.8975 39.8226 67.8729C40.2542 67.2625 40.6415 66.5719 40.9625 65.8876C41.6486 65.0675 42.036 64.0379 42.6723 63.2302C43.1039 62.0957 44.0059 61.1586 44.3987 60.0241C44.2715 59.722 43.1648 59.5617 42.8438 59.4507C42.3292 59.278 41.8146 59.0499 41.2945 58.8711C40.1601 58.4704 38.8985 58.1867 37.9744 57.3051C36.663 56.0596 35.7057 54.4134 35.2575 52.576C35.2021 52.3479 35.0085 51.5094 34.9863 51.3059C34.8259 49.8878 34.8203 44.9554 34.9974 43.5558C35.0527 43.1242 35.3847 41.7554 35.5507 41.404C35.9989 40.436 37.3104 39.1905 38.2843 38.9994C40.9293 38.4753 43.5964 37.5998 46.2137 36.8476C49.8326 35.8056 53.4404 34.776 57.087 33.7278C63.4837 31.8905 69.8693 30.01 76.3434 28.222C78.009 27.7657 79.2153 27.0258 80.9971 27.4574C81.7109 27.6301 82.4524 28.0308 83.1109 28.2405C89.5297 30.2813 95.9153 32.4454 102.301 34.554C102.849 34.7328 104.149 35.0103 104.57 35.2137L104.564 35.2322Z" fill="black"/>
</svg>
