<svg width="150" height="150" viewBox="0 0 150 150" fill="none" xmlns="http://www.w3.org/2000/svg">
<circle cx="75" cy="75" r="75" fill="#60C5BB"/>
<path d="M75.0282 130.073C62.1888 130.073 50.1934 125.192 41.2119 116.267C32.0696 107.203 27.1267 95.0704 27.2875 82.1012C27.4482 69.152 32.6925 56.9399 42.0357 47.6762C51.3788 38.4126 63.7159 33.2329 76.7561 33.0536C89.8366 32.8942 102.073 37.795 111.215 46.8594C130.063 65.5462 129.701 96.3255 110.392 115.45C101.048 124.714 88.7114 129.894 75.6711 130.073C75.4501 130.073 75.2492 130.073 75.0282 130.073ZM77.3589 39.0899C66.1873 39.0899 54.9152 43.3731 46.2953 51.9196C38.0774 60.0676 33.4761 70.8055 33.3354 82.161C33.1948 93.4965 37.4947 104.095 45.4715 112.004C53.4484 119.913 64.1378 124.196 75.5707 124.037C87.0236 123.897 97.8738 119.335 106.072 111.187C123.01 94.393 123.372 67.4387 106.895 51.1028C98.798 43.0743 88.1287 39.0899 77.3589 39.0899Z" fill="#231F20"/>
<path d="M75.8119 81.8423L67.2322 50.0868C61.6866 51.6805 56.6232 54.6688 52.5242 58.7329C39.4237 71.7219 39.1424 92.8591 51.9214 105.529C64.7005 118.2 85.9989 117.941 99.1196 104.932L75.832 81.8423H75.8119Z" fill="#231F20"/>
<path d="M74.9679 117.104C66.0065 117.104 57.1054 113.777 50.3542 107.083C36.6508 93.4966 36.912 71.1243 50.9569 57.1989C55.3171 52.8759 60.7221 49.6884 66.6093 47.995L68.7793 47.3774L77.7809 80.7267L102.214 104.952L100.647 106.506C93.5137 113.578 84.1906 117.124 74.9478 117.124L74.9679 117.104ZM65.7051 52.8958C61.3651 54.4896 57.3666 57.0196 54.0713 60.2868C41.7544 72.4989 41.4932 92.102 53.4686 103.975C65.4439 115.849 83.5476 115.59 95.9248 104.872L73.8226 82.9579L65.685 52.8759L65.7051 52.8958Z" fill="#231F20"/>
<path d="M76.2339 29.8262C75.9124 29.6868 75.2091 29.7665 74.8274 29.7466C74.5461 29.7665 74.3451 29.7466 74.2447 29.9657C74.1442 31.0415 74.2447 33.1333 74.2045 34.2489C74.2045 34.5477 74.2045 34.8266 74.5863 34.8665C74.9077 34.9063 75.4503 34.8864 75.7918 34.8864C76.1937 34.8864 76.4348 34.8266 76.4147 34.4083C76.4147 33.4122 76.4147 31.7188 76.4147 30.4837C76.4147 30.1251 76.4147 29.9059 76.254 29.8262H76.2339Z" fill="#231F20"/>
<path d="M75.2292 37.0778C74.8877 37.0778 74.5863 37.0778 74.305 37.038C73.3003 36.9583 72.0144 36.1813 71.9943 34.3087V34.2688V34.1891C71.9943 33.7907 71.9943 33.2528 71.9943 32.695C71.9943 31.6391 71.9742 30.5434 72.0546 29.7466L72.0948 29.388L72.2555 29.0493C72.5569 28.4118 73.1798 27.6548 74.5863 27.5552H74.8877C74.8877 27.5552 75.0484 27.5552 75.1288 27.5552C75.7115 27.5552 76.4147 27.5352 77.0778 27.7942L77.2385 27.8739C78.6049 28.5911 78.6249 29.9657 78.6249 30.4239V32.0177C78.6249 32.9141 78.6249 33.8106 78.6249 34.4282C78.645 35.3247 78.1025 37.0181 75.8521 37.0778C75.6311 37.0778 75.4302 37.0778 75.2292 37.0778ZM74.2045 34.3684C74.2045 34.3684 74.2045 34.4282 74.2045 34.4681C74.2045 34.4282 74.2045 34.4083 74.2045 34.3684Z" fill="#231F20"/>
<path d="M87.4256 27.6348C82.322 27.8141 65.0823 27.6348 63.5753 27.6946C63.4749 27.6946 63.4146 27.6946 63.4146 27.595C63.3744 26.1008 63.4146 24.2879 63.4146 22.2161C63.4146 20.9809 63.4146 20.204 63.4146 19.3672C63.4146 18.9887 63.4146 19.0086 63.6557 19.0086C63.7763 19.0086 63.8767 19.0086 63.9973 19.0086C67.4934 19.1083 85.577 18.8294 87.4658 19.1083C87.4658 19.1879 87.4658 19.3672 87.4658 19.686C87.4658 21.6583 87.5059 25.4235 87.4457 27.6348H87.4256Z" fill="#231F20"/>
<path d="M78.4641 29.9059C75.6511 29.9059 72.6774 29.9059 70.1055 29.9059C66.9107 29.9059 64.1379 29.886 63.6356 29.9059H63.5552H63.4749C62.3095 29.8661 61.3651 29.0692 61.2044 27.9336V27.6547C61.1642 26.7782 61.1642 25.7821 61.1642 24.6864C61.1642 23.9094 61.1642 23.0926 61.1642 22.236C61.1642 21.5786 61.1642 21.0606 61.1642 20.5825C61.1642 20.1442 61.1642 19.7657 61.1642 19.3672C61.1642 17.5145 62.4501 16.8371 63.5552 16.8371H63.9772C65.3435 16.877 68.9401 16.8371 72.7377 16.8371C81.0159 16.7973 86.5214 16.7774 87.7471 16.9567L89.2942 17.1758L89.5956 18.6899C89.6559 18.9688 89.6559 19.2078 89.6559 19.5465V19.686C89.6559 20.4231 89.6559 21.3793 89.6559 22.4153C89.6559 24.2282 89.6559 26.2602 89.6358 27.6946V28.093L88.9526 29.7864L87.5059 29.8461C85.6373 29.9059 82.2014 29.9258 78.4842 29.9258L78.4641 29.9059ZM65.5846 25.5032C66.6897 25.5032 68.2168 25.5032 70.1256 25.5032C74.9881 25.5032 81.3575 25.543 85.2354 25.5032C85.2354 24.5071 85.2354 23.4313 85.2354 22.4352C85.2354 22.0168 85.2354 21.5985 85.2354 21.2C82.3019 21.1403 76.7563 21.1801 72.7578 21.2C69.9046 21.2 67.3327 21.22 65.5846 21.22C65.5846 21.5188 65.5846 21.8575 65.5846 22.2161C65.5846 23.0727 65.5846 23.9094 65.5846 24.6864C65.5846 24.9653 65.5846 25.2243 65.5846 25.4832V25.5032Z" fill="#231F20"/>
<path d="M36.9925 42.616C37.0327 42.4766 37.2537 42.2176 37.3943 42.0184C37.6354 41.7594 38.0172 41.1617 38.2985 41.1816C38.4191 41.1816 38.5195 41.2812 38.62 41.3609C39.6046 42.1578 42.6989 44.7078 43.6834 45.5246C43.8642 45.6641 44.025 45.8035 43.8843 46.0426C43.7035 46.3414 43.3619 46.7398 43.1208 47.0187C42.8194 47.3375 42.6989 47.5566 42.2769 47.1582C41.9554 46.8992 41.6339 46.6402 41.2924 46.3613C40.3078 45.5445 39.1022 44.5684 38.178 43.8113C37.7359 43.4527 37.3742 43.1539 37.1532 42.9746C37.0528 42.875 36.9322 42.7754 36.9925 42.616Z" fill="#231F20"/>
<path d="M42.6385 49.5887C41.9755 49.5887 41.3727 49.3297 40.8101 48.8316L36.3093 45.1262C36.0682 44.927 35.8471 44.7477 35.7065 44.6281C34.7219 43.7914 34.6416 42.7156 34.8827 41.9586C35.0434 41.4805 35.3247 41.102 35.6663 40.6637L35.8672 40.4246C36.2691 39.9465 37.0728 38.9305 38.4391 39.0102H38.5999C39.3031 39.1297 39.7452 39.4883 39.9461 39.6477L45.0698 43.8512C46.416 44.9469 46.2753 46.3414 45.7529 47.1781C45.5319 47.5766 45.1702 47.975 44.909 48.2938L44.7081 48.5328C44.3866 48.8715 43.7838 49.5289 42.739 49.5688C42.6988 49.5688 42.6787 49.5688 42.6385 49.5688V49.5887Z" fill="#231F20"/>
<path d="M34.6616 48.1742C34.6616 48.1742 34.8022 48.1344 34.8625 48.0746C36.9321 45.8434 42.8193 39.4484 43.6431 38.532C43.7033 38.4523 43.7636 38.3926 43.6833 38.293C43.623 38.2133 43.4823 38.0937 43.2814 37.8945C42.5781 37.257 40.9707 35.8027 40.1871 35.0855C40.1067 35.0258 40.0464 34.966 39.9862 34.9062C39.7451 34.707 39.725 34.7469 39.5642 34.9062C38.4792 36.1016 31.8084 43.3332 30.8238 44.3891C30.7434 44.4687 30.6832 44.5285 30.7635 44.6281C30.8238 44.7277 31.0047 44.8672 31.2659 45.1063C32.0294 45.8035 33.2751 46.9191 34.1592 47.716C34.4405 47.9551 34.5812 48.1145 34.6616 48.1344V48.1742Z" fill="#231F20"/>
<path d="M34.7219 50.3656C34.4004 50.3656 34.1392 50.3058 33.9985 50.266L33.8378 50.2062C33.3958 50.0269 33.0944 49.748 32.7729 49.4691L29.6384 46.6402C29.3571 46.3812 29.1361 46.182 28.9351 45.9031C28.4529 45.2258 28.2118 44.0504 29.1361 43.0144L37.9167 33.4719C38.9213 32.3961 40.3077 32.3363 41.4128 33.2926L41.4932 33.3523C41.4932 33.3523 41.6338 33.4719 41.6941 33.5316L44.7683 36.3207C45.0898 36.5996 45.2907 36.7988 45.4716 37.0379C45.9739 37.7152 46.2552 38.9105 45.3309 39.9664C44.7482 40.6039 42.1362 43.4328 39.7853 45.9828L36.4097 49.6484C35.8471 50.2461 35.2041 50.3855 34.7219 50.3855V50.3656ZM33.7574 44.4488L34.541 45.166L36.5101 43.0344C37.9769 41.4406 39.5643 39.7273 40.6493 38.532L39.8657 37.8148L33.7373 44.4488H33.7574Z" fill="#231F20"/>
</svg>
